<svg xmlns="http://www.w3.org/2000/svg" xmlns:xlink="http://www.w3.org/1999/xlink" viewBox="0 0 3710 3710"><defs><style>.cls-1,.cls-4,.cls-7,.cls-9{fill:#fff;}.cls-2{opacity:0.3;fill:url(#linear-gradient);}.cls-3{opacity:0.74;fill:url(#linear-gradient-2);}.cls-4{opacity:0.43;}.cls-5{fill:url(#linear-gradient-3);}.cls-6{fill:url(#linear-gradient-4);}.cls-7{opacity:0.6;}.cls-8{fill:url(#linear-gradient-5);}.cls-9{opacity:0.61;}.cls-10{fill:url(#New_Gradient_Swatch_1);}.cls-11{fill:url(#New_Gradient_Swatch_19);}.cls-12{fill:url(#linear-gradient-6);}.cls-13{fill:url(#linear-gradient-7);}.cls-14{fill:url(#New_Gradient_Swatch_1-2);}.cls-15{fill:url(#linear-gradient-8);}.cls-16{fill:url(#New_Gradient_Swatch_1-3);}.cls-17{fill:url(#linear-gradient-9);}.cls-18{fill:url(#linear-gradient-10);}.cls-19{fill:url(#New_Gradient_Swatch_1-4);}.cls-20{fill:url(#linear-gradient-11);}.cls-21{fill:url(#linear-gradient-12);}.cls-22{fill:url(#New_Gradient_Swatch_14);}.cls-23{fill:url(#New_Gradient_Swatch_14-2);}.cls-24{fill:url(#linear-gradient-13);}.cls-25{fill:url(#linear-gradient-14);}.cls-26{fill:url(#New_Gradient_Swatch_1-5);}.cls-27{fill:url(#linear-gradient-15);}.cls-28{fill:url(#New_Gradient_Swatch_1-6);}.cls-29{fill:url(#New_Gradient_Swatch_1-7);}.cls-30{fill:url(#linear-gradient-16);}.cls-31{fill:url(#linear-gradient-17);}.cls-32{fill:url(#linear-gradient-18);}.cls-33{fill:url(#linear-gradient-19);}.cls-34{fill:url(#linear-gradient-20);}.cls-35{fill:#ff4f5b;}.cls-36{opacity:0.2;}.cls-37{fill:#ccc;}.cls-38{fill:#1a2e35;}.cls-39{fill:#e1e1e1;}.cls-40{fill:#f0db4e;}.cls-41{fill:#0a0a0a;}.cls-42{fill:url(#New_Gradient_Swatch_1-8);}.cls-43{fill:url(#New_Gradient_Swatch_1-9);}.cls-44{fill:url(#New_Gradient_Swatch_1-10);}.cls-45{fill:url(#New_Gradient_Swatch_1-11);}</style><linearGradient id="linear-gradient" x1="3598.59" y1="4076.81" x2="1110.28" y2="986.48" gradientUnits="userSpaceOnUse"><stop offset="0" stop-color="#b37cff"/><stop offset="1" stop-color="#f895e7"/></linearGradient><linearGradient id="linear-gradient-2" x1="3087.22" y1="2272.19" x2="1622.44" y2="4123.15" gradientTransform="matrix(1, -0.22, 0.35, 0.82, -788.1, 90.49)" xlink:href="#linear-gradient"/><linearGradient id="linear-gradient-3" x1="1958.96" y1="2206.72" x2="3207.44" y2="1029.28" gradientUnits="userSpaceOnUse"><stop offset="0" stop-color="#a737d5"/><stop offset="1" stop-color="#ef497a"/></linearGradient><linearGradient id="linear-gradient-4" x1="508.91" y1="3044.19" x2="4576.87" y2="-1620.4" gradientUnits="userSpaceOnUse"><stop offset="0" stop-color="#53d8ff"/><stop offset="1" stop-color="#3840f7"/></linearGradient><linearGradient id="linear-gradient-5" x1="2056.54" y1="-571.02" x2="1406.02" y2="1421.83" xlink:href="#linear-gradient-4"/><linearGradient id="New_Gradient_Swatch_1" x1="2626.2" y1="1056.81" x2="2466.44" y2="1443.03" gradientTransform="translate(126.98 357.24) rotate(9.25)" gradientUnits="userSpaceOnUse"><stop offset="0" stop-color="#2b3582"/><stop offset="1" stop-color="#150e42"/></linearGradient><linearGradient id="New_Gradient_Swatch_19" x1="2449.01" y1="2225.53" x2="2521.76" y2="4426.26" gradientUnits="userSpaceOnUse"><stop offset="0" stop-color="#fdf53f"/><stop offset="1" stop-color="#d93c65"/></linearGradient><linearGradient id="linear-gradient-6" x1="2027.98" y1="2430.67" x2="2510" y2="3595.03" gradientUnits="userSpaceOnUse"><stop offset="0" stop-color="#f9b776"/><stop offset="1" stop-color="#f47960"/></linearGradient><linearGradient id="linear-gradient-7" x1="-7049.56" y1="2428.17" x2="-6567.54" y2="3592.53" gradientTransform="matrix(-1, 0, 0, 1, -4167.07, 0)" xlink:href="#linear-gradient-6"/><linearGradient id="New_Gradient_Swatch_1-2" x1="2456.15" y1="2580.8" x2="2431.06" y2="3596.98" gradientTransform="matrix(1, 0, 0, 1, 0, 0)" xlink:href="#New_Gradient_Swatch_1"/><linearGradient id="linear-gradient-8" x1="2506.44" y1="2369.93" x2="2331.81" y2="3532.1" xlink:href="#linear-gradient-4"/><linearGradient id="New_Gradient_Swatch_1-3" x1="2760.2" y1="3153.69" x2="3023.61" y2="3153.69" gradientTransform="translate(9.52 16.81) rotate(0.44)" xlink:href="#New_Gradient_Swatch_1"/><linearGradient id="linear-gradient-9" x1="3387.43" y1="2845.64" x2="2771.86" y2="3370.21" xlink:href="#linear-gradient-4"/><linearGradient id="linear-gradient-10" x1="2919.3" y1="2716.82" x2="2641.26" y2="3469.93" xlink:href="#linear-gradient-6"/><linearGradient id="New_Gradient_Swatch_1-4" x1="-6983.61" y1="3102.24" x2="-6720.09" y2="3102.24" gradientTransform="matrix(-1, -0.02, -0.02, 1, -4814, -50.84)" xlink:href="#New_Gradient_Swatch_1"/><linearGradient id="linear-gradient-11" x1="1499.82" y1="2295.06" x2="2002.99" y2="3515.51" xlink:href="#linear-gradient-4"/><linearGradient id="linear-gradient-12" x1="2362.24" y1="2489.87" x2="2084.05" y2="3243.38" xlink:href="#linear-gradient-6"/><linearGradient id="New_Gradient_Swatch_14" x1="3037.15" y1="2702.29" x2="2314.34" y2="3245.26" gradientUnits="userSpaceOnUse"><stop offset="0" stop-color="#7c27dd"/><stop offset="1" stop-color="#2b41d9"/></linearGradient><linearGradient id="New_Gradient_Swatch_14-2" x1="2383.86" y1="3189.14" x2="2194.42" y2="2706.07" xlink:href="#New_Gradient_Swatch_14"/><linearGradient id="linear-gradient-13" x1="2451.12" y1="2526.81" x2="2444.71" y2="1968.79" xlink:href="#linear-gradient-6"/><linearGradient id="linear-gradient-14" x1="2560.99" y1="1432.31" x2="2579.55" y2="981.14" gradientTransform="translate(126.98 357.24) rotate(9.25)" xlink:href="#linear-gradient-6"/><linearGradient id="New_Gradient_Swatch_1-5" x1="2616.41" y1="1052.5" x2="2458.06" y2="1435.33" xlink:href="#New_Gradient_Swatch_1"/><linearGradient id="linear-gradient-15" x1="2367.18" y1="2099.91" x2="2396.28" y2="1392.87" gradientTransform="translate(31.26 60.87) rotate(1.75)" xlink:href="#linear-gradient-6"/><linearGradient id="New_Gradient_Swatch_1-6" x1="1818.58" y1="957.02" x2="2280.35" y2="2535.15" gradientTransform="matrix(1, 0, 0, 1, 0, 0)" xlink:href="#New_Gradient_Swatch_1"/><linearGradient id="New_Gradient_Swatch_1-7" x1="1971.68" y1="912.23" x2="2433.45" y2="2490.36" gradientTransform="matrix(1, 0, 0, 1, 0, 0)" xlink:href="#New_Gradient_Swatch_1"/><linearGradient id="linear-gradient-16" x1="406.73" y1="4090.68" x2="922.53" y2="2075.48" gradientUnits="userSpaceOnUse"><stop offset="0" stop-color="#7a2ddb"/><stop offset="1" stop-color="#7077ff"/></linearGradient><linearGradient id="linear-gradient-17" x1="716.26" y1="2458.38" x2="937.52" y2="2458.38" gradientTransform="matrix(1, 0, 0, 1, 0, 0)" xlink:href="#New_Gradient_Swatch_1"/><linearGradient id="linear-gradient-18" x1="2972.01" y1="172.69" x2="1484.61" y2="1588.12" xlink:href="#linear-gradient-16"/><linearGradient id="linear-gradient-19" x1="1545.61" y1="3241.87" x2="1661.89" y2="2350.38" gradientTransform="matrix(0.97, 0.23, -0.23, 0.97, 198.94, -279.69)" xlink:href="#linear-gradient-3"/><linearGradient id="linear-gradient-20" x1="1529.02" y1="2615.56" x2="1715.94" y2="2615.56" gradientTransform="matrix(0.97, 0.23, -0.23, 0.97, 198.94, -279.69)" xlink:href="#New_Gradient_Swatch_1"/><linearGradient id="New_Gradient_Swatch_1-8" x1="1627.46" y1="2001.9" x2="1891.7" y2="2001.9" gradientTransform="matrix(1, 0, 0, 1, 0, 0)" xlink:href="#New_Gradient_Swatch_1"/><linearGradient id="New_Gradient_Swatch_1-9" x1="1636.1" y1="2003.7" x2="1901.01" y2="2003.7" gradientTransform="matrix(1, 0, 0, 1, 0, 0)" xlink:href="#New_Gradient_Swatch_1"/><linearGradient id="New_Gradient_Swatch_1-10" x1="1545.75" y1="1995.74" x2="1967.23" y2="1995.74" gradientTransform="matrix(1, 0, 0, 1, 0, 0)" xlink:href="#New_Gradient_Swatch_1"/><linearGradient id="New_Gradient_Swatch_1-11" x1="1731.97" y1="2000.98" x2="1799.2" y2="2000.98" gradientTransform="matrix(1, 0, 0, 1, 0, 0)" xlink:href="#New_Gradient_Swatch_1"/></defs><title>flat</title><g id="Background"><rect class="cls-1" width="3710" height="3710"/></g><g id="Illustration"><path class="cls-2" d="M2914,2858.09c-57.15,60.17-111.23,99-154,129.63-502.25,360.38-1096.55,255.33-1222.86,229.68-186.51-37.88-547-111.11-807.69-417.63C335.18,2336,396.58,1605.4,702.47,1123.11c55.95-88.22,351.5-577.85,952.2-656.38,363.53-47.52,787.3,48.33,1094.18,305.43C3393,1311.85,3347.17,2402.11,2914,2858.09Z"/><path class="cls-3" d="M3239.9,1142.58c-1.54-13.45-24.67-17.49-31.16-5.43C3146,1253.81,2969,1555,2746.41,1695.71c-362.48,229.15-644.5,646.68-475.37,909.66C2271,2605.37,3408.1,2608.8,3239.9,1142.58Z"/><path class="cls-4" d="M3180.89,1313.58c-1.08,4.1-2.4,7.37-3.61,11l-3.87,10.54c-2.65,7-5.28,14-8,20.94-5.46,13.92-11.14,27.75-16.87,41.55-11.46,27.62-23.54,55-35.74,82.25q-37.09,81.66-78.44,161.31c-54.71,106.37-115.74,209.47-181.65,309.33-33.09,49.85-68.15,98.39-104.38,146l-27.66,35.35c-4.56,5.93-9.32,11.7-14.09,17.47l-14.27,17.32L2678,2184c-4.81,5.73-9.79,11.32-14.68,17-9.85,11.26-19.54,22.67-29.59,33.75q-60.36,66.49-126.38,127.5c-22.54,19.7-44.7,39.82-68.27,58.28-22.89,19.28-47.36,36.56-71.34,54.4a1.69,1.69,0,0,1-2-2.7l.05,0a1756.66,1756.66,0,0,0,136.84-115.09q64.88-61.55,124.36-128.41c39.29-44.82,77.37-90.71,113.45-138.18s70.45-96.2,103.75-145.67q49.57-74.44,95.23-151.44l22.58-38.62,22-39c14.49-26.07,28.9-52.18,42.82-78.57q41.94-79.07,80-160.13c12.62-27,25.13-54.13,37-81.5q8.92-20.52,17.53-41.17c2.89-6.88,5.67-13.8,8.47-20.71l4.08-10.4c1.26-3.43,2.71-7.1,3.66-10.2l.14-.45a1.67,1.67,0,0,1,3.21.92Z"/><path class="cls-5" d="M3019.85,568c-2.78-15.38-24.38-16.81-29.1-1.9-45.59,144.07-177,518.09-366.57,712.62-308.72,316.74-524.48,840.47-342.68,1121.41C2281.5,2400.09,3323.64,2243.65,3019.85,568Z"/><path class="cls-4" d="M2983.38,774.48c-.54,4.52-1.38,8.47-2.1,12.63l-2.39,12.31-5,24.55c-3.46,16.34-7.08,32.64-10.75,48.94q-11.16,48.84-23.43,97.43c-16.38,64.77-34.44,129.11-53.51,193.15s-39.67,127.62-61.64,190.73l-8.2,23.69-8.5,23.57c-5.74,15.69-11.2,31.49-17.2,47.08l-17.69,46.91-18.39,46.63c-49.7,124.09-105.92,245.7-170.56,362.81-3.93,7.37-8.11,14.62-12.33,21.83l-12.59,21.7-12.58,21.69c-4.29,7.17-8.76,14.24-13.13,21.37-8.87,14.17-17.4,28.55-26.54,42.55l-27.65,41.85c-37.91,55.09-78.25,108.54-122.14,159a1.69,1.69,0,0,1-2.58-2.19v0A1898.14,1898.14,0,0,0,2473.34,2072l27.12-42c9-14,17.32-28.47,26-42.68,4.28-7.15,8.66-14.23,12.86-21.43l12.31-21.75,12.32-21.75c4.13-7.23,8.22-14.49,12.07-21.88l23.59-44.07c7.78-14.73,15.15-29.68,22.74-44.51,3.74-7.45,7.59-14.84,11.25-22.32l10.83-22.53,10.82-22.53c3.64-7.5,7.22-15,10.62-22.63,28.2-60.41,54-121.92,79.17-183.64,49.9-123.68,93.44-249.88,133-377.28q29.5-95.61,55.29-192.34,13-48.31,24.93-96.91c3.93-16.22,7.81-32.44,11.52-48.7l5.42-24.41,2.57-12.23c.78-4,1.69-8.27,2.23-12l.06-.37a1.68,1.68,0,0,1,3.33.44Z"/><path class="cls-6" d="M580.72,462.36H2700.26c57.79,0,104.34,66.26,103.29,147l-29.82,2298.5c-1.4,108.17-65.05,194.45-195.32,193.1L525.56,3065c-3.7-1-49.17-65.41-49.14-144.49l1-2313.81C477.44,527,523.69,462.36,580.72,462.36Z"/><path class="cls-7" d="M627.46,524.6H2662.71c55.5,0,100.2,63,99.19,139.7l-28.63,2183.91c-1.35,102.78-62.46,184.76-136.78,183.47L625.27,2997.46c-54.32-.94-98-62.14-98-137.28l1-2198.45C528.29,586,572.7,524.6,627.46,524.6Z"/><path class="cls-8" d="M553.22,517.76H2734.37a24.45,24.45,0,0,1,24.45,24.45V851.76a0,0,0,0,1,0,0H527.31a0,0,0,0,1,0,0V543.67A25.91,25.91,0,0,1,553.22,517.76Z"/><path class="cls-9" d="M2510.22,709.38l-1157.7-11c-27.29-.26-49.25-18.29-49.26-40.43v-38.6c0-17.09,17.06-31,38.12-31H2518.52c20.76,0,37.14,14.32,35.62,31.12l-5.56,61.25C2547.1,697.05,2530.3,709.57,2510.22,709.38Z"/><path class="cls-7" d="M2656.27,1051.37H629.74a24.3,24.3,0,0,1-24.34-24.25V962.25A24.3,24.3,0,0,1,630,938l2026.53,17.85a24.3,24.3,0,0,1,24.13,24.25v47A24.3,24.3,0,0,1,2656.27,1051.37Z"/><path class="cls-1" d="M1114.05,699.41a59.33,59.33,0,1,1,59.32-59.32A59.39,59.39,0,0,1,1114.05,699.41Zm0-111.88a52.56,52.56,0,1,0,52.56,52.56A52.62,52.62,0,0,0,1114.05,587.53Z"/><path class="cls-1" d="M920.43,704a59.33,59.33,0,1,1,59.32-59.33A59.4,59.4,0,0,1,920.43,704Zm0-111.88A52.56,52.56,0,1,0,973,644.62,52.61,52.61,0,0,0,920.43,592.07Z"/><path class="cls-1" d="M734.38,704a59.33,59.33,0,1,1,59.33-59.33A59.39,59.39,0,0,1,734.38,704Zm0-111.88a52.56,52.56,0,1,0,52.56,52.55A52.61,52.61,0,0,0,734.38,592.07Z"/><path class="cls-7" d="M1855.19,1247l-379-3.15a21.5,21.5,0,0,1-21.32-21.68l.08-10.57a21.51,21.51,0,0,1,21-21.32l379.12-9.38a21.51,21.51,0,0,1,22,21.67l-.19,23.1A21.51,21.51,0,0,1,1855.19,1247Z"/><path class="cls-7" d="M1936.87,1935.67l-558-4.64a34.13,34.13,0,0,1-33.85-34.42l4.64-558.89a34.16,34.16,0,0,1,33.55-33.86l551,10.46a42.57,42.57,0,0,1,41.76,42.93l-4.69,544.56A34.14,34.14,0,0,1,1936.87,1935.67Z"/><path class="cls-7" d="M1150.09,1247l-379-3.15a21.5,21.5,0,0,1-21.32-21.68l.09-10.57a21.5,21.5,0,0,1,21-21.32l379.13-9.38a21.5,21.5,0,0,1,22,21.67l-.19,23.1A21.51,21.51,0,0,1,1150.09,1247Z"/><path class="cls-7" d="M1231.77,1935.67l-558-4.64a34.13,34.13,0,0,1-33.86-34.42l4.64-558.89a34.16,34.16,0,0,1,33.55-33.86l551,10.46a42.57,42.57,0,0,1,41.76,42.93l-4.69,544.56A34.14,34.14,0,0,1,1231.77,1935.67Z"/><path class="cls-7" d="M2562.37,1260.17l-379-3.15a21.5,21.5,0,0,1-21.33-21.67l.09-10.57a21.51,21.51,0,0,1,21-21.32l379.12-9.38a21.51,21.51,0,0,1,22,21.67l-.2,23.1A21.49,21.49,0,0,1,2562.37,1260.17Z"/><path class="cls-7" d="M2644.06,1948.89l-558-4.64a34.16,34.16,0,0,1-33.86-34.43l4.65-558.88a34.14,34.14,0,0,1,33.54-33.86l551,10.46a42.57,42.57,0,0,1,41.77,42.93L2678.49,1915A34.15,34.15,0,0,1,2644.06,1948.89Z"/><rect class="cls-7" x="663.91" y="2034.16" width="2009.61" height="98.67" rx="8.99"/><rect class="cls-7" x="668.29" y="2189.88" width="2009.61" height="98.67" rx="8.99"/><rect class="cls-7" x="653.5" y="2365.11" width="2009.61" height="98.67" rx="8.99"/><rect class="cls-7" x="657.88" y="2520.83" width="2009.61" height="98.67" rx="8.99"/><rect class="cls-7" x="653.5" y="2685.19" width="2009.61" height="98.67" rx="8.99"/><path class="cls-10" d="M2359.5,1882.34c-1.14,2.16-35.69,26.51-35.69,26.51s-24,132.25,20,197.36S2538,2055.39,2538,2055.39s84.42-13.2,126.83-179.2c9.73-38.08-51.11-9.14-118.89-2.13C2458.51,1883.11,2359.5,1882.34,2359.5,1882.34Z"/><path class="cls-11" d="M2209.66,2296.92a310.06,310.06,0,0,1,94.25-43.84c12.66-3.45,81,16.42,123.27,15.45,58-1.34,117.05-27.73,164.86-15.82,47.49,11.84,86.36,27.29,108.81,43.26,67.18,47.78,106.62,136.87,130.66,225.12-45.52,46.73-102.79,67.49-102.79,67.49l-10.59,429-253.65,129.78L2175,3002l10.37-419.21s-91.94-42.81-98.69-58.39S2128.55,2352.69,2209.66,2296.92Z"/><path class="cls-12" d="M2090.93,2522.51s-123.2,341.56,157.74,481.94c58.33-7.75,35.9-104.63,35.9-104.63s-122.07-27-85.41-311.94C2165.4,2560.11,2090.93,2522.51,2090.93,2522.51Z"/><path class="cls-13" d="M2825.58,2522.51s84.78,356.54-157.74,481.94c-58.33-7.75-35.9-104.63-35.9-104.63s98.39-48.45,85.41-311.94C2751.11,2560.11,2825.58,2522.51,2825.58,2522.51Z"/><rect class="cls-14" x="2171.62" y="2652.79" width="556.24" height="375.65" rx="5.05"/><path class="cls-15" d="M2482.55,2754.52c2.94,19.93-7.73,38-27.66,41a36.49,36.49,0,0,1-41.43-30.75c-2.95-19.93,6.18-39.72,26.1-42.67S2479.6,2734.59,2482.55,2754.52Z"/><path class="cls-16" d="M2971.83,3139.81c-63.66-14.62-210.78-6.76-210.78-6.76l-6,16.21-9.91,80.55s140.11,25.25,209.18,25.19a64.9,64.9,0,0,0,19.38-2.9c2.1-1.89,4.16-3.85,6.11-6C3009.12,3214.13,3000.66,3167.12,2971.83,3139.81Z"/><path class="cls-17" d="M2978.14,3141.4c-2-.56-4.11-1.09-6.31-1.59,28.83,27.31,37.29,74.32,8,106.32-2,2.12-4,4.08-6.11,6C3025.52,3236,3031.65,3156.46,2978.14,3141.4Z"/><path class="cls-18" d="M2718.77,3128.51l24.92,1.07c13.38.57,26,7.09,35,18.09a59.11,59.11,0,0,1,12.85,40.39,46.46,46.46,0,0,1-13.49,30.73,37.72,37.72,0,0,1-29.15,11.07l-38.12-2.71Z"/><path class="cls-19" d="M1881.06,3132.06c64-12.66,210.87-.29,210.87-.29l5.58,16.38,7.89,80.83s-140.69,20.94-209.72,18.76a64.85,64.85,0,0,1-19.3-3.49,84.77,84.77,0,0,1-6-6.16C1841.93,3205.21,1851.56,3158.48,1881.06,3132.06Z"/><path class="cls-20" d="M1874.71,3133.46c2-.5,4.13-1,6.35-1.4-29.5,26.42-39.13,73.15-10.64,106a84.77,84.77,0,0,0,6,6.16C1825,3226.55,1820.84,3146.87,1874.71,3133.46Z"/><path class="cls-21" d="M2134.3,3128.53l-24.93.3c-13.39.16-26.17,6.3-35.44,17a58.74,58.74,0,0,0-13.84,40A46.78,46.78,0,0,0,2072.8,3217a37.94,37.94,0,0,0,28.86,12l38.17-1.54Z"/><path class="cls-22" d="M2989.63,2887.28c-28.87-66.44-99.47-77.22-159.57-46.16-1,1.38-381.63,196.43-717.27,281.92,9.61,30.81,14.55,63.58,15.63,95.8q.28,10.77-.35,21.24c257.38-13.22,536.72-99.06,776.76-174.49C2979.26,3041.59,3021.63,2960.92,2989.63,2887.28Z"/><path class="cls-23" d="M2720.6,3223.89q-1.5-55.71,21.66-103.71c.44-1.47,1-2.87,1.44-4.32-19.17-5.94-43.93-14-76.46-25-238.33-81.56-420.15-163.92-593.68-258.72-67.41-36.83-144.06-12.15-165.64,67.62-19.27,71.21,24.45,128.14,87.24,153.37C2211,3139.81,2528.11,3219,2721,3232,2720.86,3229.28,2720.69,3226.58,2720.6,3223.89Z"/><path class="cls-24" d="M2303.91,2253.08s25.63,111.07,150.08,108.77c126.75-2.31,138.05-109.14,138.05-109.14l-82.8-17.72-6.92-92.25L2377.78,2152l-2.31,87.65Z"/><path class="cls-25" d="M2389.74,1870.81S2257.12,2127.7,2414.43,2190c111,44,180.54-170.59,159.79-228.7-32.09-89.85-53.22-79.19-53.22-79.19Z"/><path class="cls-1" d="M2574.22,1961.32c-.38-1-.7-2-1-2.85.51,4.74.78,9.68.84,14.77.2-3.62.37-7.25.49-10.88C2574.44,1962,2574.34,1961.65,2574.22,1961.32Z"/><path class="cls-1" d="M2573.22,1958.47c-.19-1.75-.39-3.49-.65-5.2C2579.4,1964.64,2566.27,1938.15,2573.22,1958.47Z"/><path class="cls-26" d="M2635.61,1801.84c71.06-16.16,21.74,203.65-84.05,167.61s-155.08-58.17-171.56-29.12-44,147.87-53.09,86.26c-8.53-57.58-16.79-163.11,38.8-186.14,31.56-13.08,59.31,15.26,81.07,8.17,33.49-10.93,65.75-11.29,85.65.18C2570.07,1870.5,2590.45,1812.12,2635.61,1801.84Z"/><path class="cls-27" d="M2368.17,1983.07s-22.94-34.64-33.4.81-3.81,84.42,17.21,61.65S2368.17,1983.07,2368.17,1983.07Z"/><path class="cls-28" d="M2473.07,1775H1478.92a79.51,79.51,0,0,1-79.52-79.51V1262.69a79.51,79.51,0,0,1,82.06-79.47l994.15,31.8a79.51,79.51,0,0,1,77,79.47v401A79.51,79.51,0,0,1,2473.07,1775Z"/><polygon class="cls-29" points="2131.61 1771.74 2263.71 1931.36 2314.75 1771.74 2131.61 1771.74"/><path class="cls-1" d="M1854.07,1610.51l-222.33-115.15v-36.51L1854.07,1343v59.62l-151.84,74,151.84,74.53Z"/><path class="cls-1" d="M2071.62,1309.48l-114,352.36-59.24-.51,115.73-355Z"/><path class="cls-1" d="M2112.74,1556.93l137.11-63.3-137.11-80.48v-57.7l197.47,125.76v33.51l-197.47,99.67Z"/><path class="cls-30" d="M923.43,2268.07c-17.31-36.06-29.68-73.8-32.57-114.89-7.28-103.55,52.91-198.9,97.13-288,40.64-81.94,70.85-204-66.28-193.16C812.46,1680.63,684,1789.51,669.36,1903c-17.34,134.37,48.08,303.81-29.48,425.87-108.5,170.75-186.76,131.62-186.76,419.76,0,123.12,68.2,191,146.31,228.45A326.9,326.9,0,0,0,968,2917.23c86.78-84,138.38-204.72,120.93-325.93C1071.28,2468.88,975.26,2376,923.43,2268.07Z"/><path class="cls-31" d="M831.76,3195.73a5.07,5.07,0,0,1-4.92-3.84c-68-271.38-105-517.39-110-731.2-4-171.27,12.4-322.42,48.76-449.26,62.16-216.87,159.82-286.63,163.94-289.5a5.08,5.08,0,0,1,5.79,8.34c-1,.69-99.34,71.28-160.36,285.3-56.43,197.9-91.53,562.2,61.71,1173.85a5.08,5.08,0,0,1-3.69,6.16A5.26,5.26,0,0,1,831.76,3195.73Z"/><path class="cls-32" d="M1032.29,1964.3a45.85,45.85,0,0,0-17.27-1.17c-34.17,3.93-48.21,40-58.25,68.15-8.6,24.14-18.73,53.43-13.65,79.57,5.49,28.27,35.51,51.32,57.29,22.62,24.75-32.62,61.9-82.7,62.13-125.93C1062.65,1986.06,1050.59,1969.27,1032.29,1964.3Z"/><path class="cls-33" d="M1409.61,2728.91C1425.09,2627,1388,2510,1369.55,2402.18c-9.77-57-14.3-113.55-5.14-171,9.1-57.08,35.92-118.82,11.19-175.7-49.83-114.58-168.3-62.43-236.16,23.82C1060.7,2179.44,1039.17,2343,1009.26,2469c-18,75.92-45.19,153.81-54.7,231.18-15.76,128.18,13.22,217.16,74.54,277.26a185.57,185.57,0,0,0,220.32,29.53C1314.41,2970.73,1384.65,2893.34,1409.61,2728.91Z"/><path class="cls-34" d="M1138.6,3203a5.09,5.09,0,0,1-5-4.24c-.26-1.54-26-157.06-26.71-371.65-.62-198.14,20.63-488.68,125.38-747.69a5.07,5.07,0,0,1,9.41,3.8c-104.11,257.42-125.24,546.49-124.64,743.66.66,213.81,26.31,368.66,26.57,370.2a5.09,5.09,0,0,1-4.16,5.85A6.22,6.22,0,0,1,1138.6,3203Z"/><path class="cls-35" d="M1511.71,2358.25c-12.84,5.87-21,18.2-20.88,31.7l1.79,262.81a34.66,34.66,0,0,0,18.38,30l236.32,130.07a.11.11,0,0,0,.11,0l226.2-135.43a34.52,34.52,0,0,0,17.19-29.76L1989,2373.23c-.1-14-9-26.56-22.6-32l-222.79-88.92Z"/><g class="cls-36"><path d="M1743.57,2252.31l3.8,560.52,225.91-135.17c11-6.53,17.63-17.59,17.55-29.62l-1.76-275.51c-.08-13.6-8.87-25.87-22.39-31.26Z"/></g><path class="cls-1" d="M1809.69,2567.09l-137.82.79-28.12,61.51-38.16.22,115.79-246,36.68-.22L1877.54,2628l-38.9.22Zm-13.15-28-56.77-119.9-55.13,120.55Z"/><polygon class="cls-37" points="1233.1 1635.72 726.67 1635.72 726.67 972.01 1114.05 973.21 1233.1 1109.43 1233.1 1635.72"/><path class="cls-38" d="M878.17,1350.67c-.66.66-9.07-7.34-22.14-20.81s-30.82-32.43-50.14-53.66l-2.16-2.38,2.15-2.39.21-.23c19.25-21.41,36.94-40.53,50-54.13s21.44-21.67,22.1-21-6.55,9.93-18.73,24.39-29.34,34.1-48.59,55.52l-.2.23,0-4.78c19.31,21.24,36.52,40.73,48.74,55.07S878.82,1350,878.17,1350.67Z"/><path class="cls-38" d="M1081.39,1196.05c.65-.66,9.06,7.34,22.14,20.82s30.81,32.42,50.13,53.65l2.16,2.38-2.15,2.4-.21.23c-19.25,21.41-36.94,40.52-50,54.12s-21.44,21.68-22.09,21,6.54-9.93,18.72-24.38,29.34-34.11,48.59-55.52l.2-.23,0,4.77c-19.31-21.24-36.52-40.72-48.74-55.06S1080.73,1196.71,1081.39,1196.05Z"/><path class="cls-38" d="M918.16,1375.06c-1.55-1,24.74-49.24,58.71-107.75s62.77-105.16,64.31-104.16-24.73,49.24-58.71,107.77S919.71,1376.06,918.16,1375.06Z"/><path class="cls-39" d="M1114,973.25l-.46,111.18c-.06,16.17,12.6,29.18,27.94,28.71l91.58-3.62Z"/><rect class="cls-40" x="667.56" y="1421.6" width="224.59" height="143.84"/><path class="cls-41" d="M731.37,1522.93l5.84-7.22c3.83,5.74,8.77,8.81,14.71,8.81,8,0,12.09-5.09,12.09-15.07v-41.71H738.52v-9.24H774v50.42c0,16.56-7.66,24.73-22.06,24.73A24.18,24.18,0,0,1,731.37,1522.93Z"/><path class="cls-41" d="M788.06,1524.31l3.73-8.28c5.24,5,14.2,8.6,23.27,8.6,12.18,0,17.42-5,17.42-11.46,0-18.15-42.7-6.69-42.7-34.29,0-11.46,8.46-21.22,27-21.22,8.26,0,16.82,2.33,22.66,6.58l-3.32,8.49a35.09,35.09,0,0,0-19.34-6c-12,0-17.12,5.3-17.12,11.78,0,18.15,42.7,6.79,42.7,34.07,0,11.36-8.66,21.12-27.29,21.12C804.28,1533.65,793.7,1529.83,788.06,1524.31Z"/><path class="cls-42" d="M1828.88,1963c-.76.44-7.78-11-22-30.5-7.1-9.76-16-21.52-27.12-34.57a386.62,386.62,0,0,0-40.7-41.41,226.87,226.87,0,0,0-26.88-20.15c-9.84-6.11-20.75-11.78-32.54-14.28a41,41,0,0,0-17.53-.23,26.2,26.2,0,0,0-14.32,8.94c-3.81,4.47-6.27,10.35-7.87,16.56a88.89,88.89,0,0,0-2.48,19.74c-.19,13.67,1.67,27.86,4.75,42.13a336.52,336.52,0,0,0,12.58,43c10.36,28.79,24.35,57.54,40.9,85.68,16.72,28.06,35.26,54.25,55.66,77.4a346.72,346.72,0,0,0,31.94,32.17c11.13,9.72,22.81,18.39,35,25.07a94.47,94.47,0,0,0,18.77,7.78c6.32,1.76,12.77,2.62,18.64,1.63a26.33,26.33,0,0,0,15.1-7.63,38.85,38.85,0,0,0,8.56-14.92c3.68-11.21,4.09-23.25,3.59-34.62a216.31,216.31,0,0,0-4.46-32.77,375.92,375.92,0,0,0-16.42-55.08c-6.05-15.89-12-29.31-17.15-40.18-10.25-21.75-16.87-33.38-16.1-33.81.32-.18,2.31,2.53,5.82,7.88s8.34,13.42,14.06,24.11,12.35,24,19,39.87a357.52,357.52,0,0,1,18.26,55.64,218.72,218.72,0,0,1,5.32,33.87c.73,12,.64,24.73-3.37,37.73a47.3,47.3,0,0,1-10.39,18.48,35.72,35.72,0,0,1-20.26,10.58c-7.77,1.37-15.55.32-22.84-1.61a104.24,104.24,0,0,1-20.92-8.41c-13.25-7.07-25.52-16.07-37.14-26.08a351.23,351.23,0,0,1-33.11-32.95c-21-23.63-40-50.29-57-78.88-16.87-28.66-31.06-58-41.54-87.54a339.14,339.14,0,0,1-12.7-44.42c-3.08-14.82-4.94-29.68-4.59-44.41a98.12,98.12,0,0,1,3-21.87c1.93-7.11,4.89-14.21,10-20.08A35.62,35.62,0,0,1,1660,1813a50,50,0,0,1,21.6.46c13.55,3.12,24.94,9.43,35.19,16a227.33,227.33,0,0,1,27.43,21.42,367.84,367.84,0,0,1,40.29,43.24c10.78,13.58,19.29,25.81,25.9,36s11.32,18.35,14.38,23.94S1829.2,1962.78,1828.88,1963Z"/><path class="cls-43" d="M1700.5,1962.72c.76.45-6,11.51-16.48,32.3-5.24,10.38-11.36,23.23-17.57,38.47a345.92,345.92,0,0,0-16.92,53,195.62,195.62,0,0,0-4.67,31.62c-.59,11-.23,22.61,3.34,33.43a38.55,38.55,0,0,0,8.26,14.45,27.39,27.39,0,0,0,14.48,7.89,43,43,0,0,0,18.09-.48,86.8,86.8,0,0,0,18.52-6.5c12.18-5.75,23.86-13.61,35.06-22.5a324.65,324.65,0,0,0,32.2-29.78c20.61-21.61,39.44-46.32,56.44-73s31.15-54.2,41.78-81.83a312.77,312.77,0,0,0,13-41.4c3.16-13.74,5.16-27.44,5-40.64a80.75,80.75,0,0,0-2.3-19.06,40.5,40.5,0,0,0-7.63-16,27.32,27.32,0,0,0-13.71-9.11,40.71,40.71,0,0,0-16.95-.75c-11.52,1.7-22.36,6.59-32.17,12a205.66,205.66,0,0,0-26.93,18.19,357.37,357.37,0,0,0-41.06,38.4c-11.22,12.22-20.27,23.29-27.47,32.5-14.38,18.43-21.52,29.26-22.28,28.8-.31-.19,1.14-3.1,4.2-8.46s7.91-13.1,14.66-22.74,15.39-21.21,26.32-34a341,341,0,0,1,40.76-40.29,208.69,208.69,0,0,1,27.59-19.47c10.26-5.88,21.67-11.39,35-13.61a49.71,49.71,0,0,1,20.92.73,36.7,36.7,0,0,1,18.53,11.94,49.71,49.71,0,0,1,9.68,19.48,89.81,89.81,0,0,1,2.83,21.24c.31,14.31-1.71,28.69-4.89,43a317.36,317.36,0,0,1-13.12,42.83c-10.79,28.43-25.3,56.49-42.51,83.77s-36.63,52.36-57.9,74.46a329.12,329.12,0,0,1-33.43,30.55c-11.74,9.17-24,17.35-37.3,23.46a95.89,95.89,0,0,1-20.75,7,52.66,52.66,0,0,1-22.19.25,37,37,0,0,1-19.24-10.84,47,47,0,0,1-10-17.93c-3.91-12.61-3.94-25-3.13-36.6a197.43,197.43,0,0,1,5.56-32.77,331.1,331.1,0,0,1,18.77-53.55,426.84,426.84,0,0,1,19.44-38.13c5.83-10.19,10.83-17.84,14.32-22.94S1700.19,1962.53,1700.5,1962.72Z"/><path class="cls-44" d="M1756.49,1916.07c0,.86-13.2,1.08-36.84,3.32-11.82,1.12-26.24,2.8-42.8,5.67a369.69,369.69,0,0,0-55.09,13.85,208.27,208.27,0,0,0-30,12.76c-9.87,5.29-19.84,11.71-27.38,20.36a38.61,38.61,0,0,0-8.27,14.45,26,26,0,0,0,.74,16.17,40.87,40.87,0,0,0,10,14.74,84.33,84.33,0,0,0,15.41,11.94c11.42,7.08,24.42,12.62,38.06,17.24a335.21,335.21,0,0,0,42.92,11c29.68,5.72,61.14,8.34,93.32,8.42,32.19-.08,63.65-2.69,93.34-8.41a335.37,335.37,0,0,0,42.93-11c13.64-4.61,26.64-10.16,38.07-17.24a84.77,84.77,0,0,0,15.41-11.94,40.75,40.75,0,0,0,9.94-14.75,26,26,0,0,0,.74-16.16,38.65,38.65,0,0,0-8.26-14.45c-7.55-8.66-17.52-15.08-27.4-20.36a207.4,207.4,0,0,0-30-12.77,370.7,370.7,0,0,0-55.08-13.84c-16.56-2.87-31-4.55-42.8-5.67-23.64-2.24-36.84-2.46-36.83-3.32,0-.37,3.29-.69,9.59-1s15.58-.33,27.54.2,26.59,1.59,43.47,4a352,352,0,0,1,56.57,12.6,210,210,0,0,1,31.5,12.63c10.53,5.42,21.34,12,30.28,21.85a47.14,47.14,0,0,1,10.38,17.73,34.89,34.89,0,0,1-.67,21.65,49.85,49.85,0,0,1-11.89,18.28,93.41,93.41,0,0,1-17,13.52c-12.32,7.78-25.92,13.68-40.09,18.59a339,339,0,0,1-44.25,11.65c-30.47,6-62.58,8.74-95.43,8.83-32.82-.09-64.93-2.82-95.39-8.83a338.86,338.86,0,0,1-44.24-11.65c-14.17-4.91-27.77-10.81-40.08-18.59a93.79,93.79,0,0,1-17-13.51,49.93,49.93,0,0,1-11.89-18.28,35,35,0,0,1-.68-21.65,47.2,47.2,0,0,1,10.38-17.73c8.94-9.88,19.75-16.44,30.27-21.85a210.94,210.94,0,0,1,31.5-12.64,351.81,351.81,0,0,1,56.58-12.6c16.88-2.36,31.51-3.45,43.47-4s21.26-.41,27.55-.2S1756.49,1915.7,1756.49,1916.07Z"/><ellipse class="cls-45" cx="1765.59" cy="2000.98" rx="33.61" ry="32.22"/></g></svg>